<svg width="286.054" height="286.054" xmlns="http://www.w3.org/2000/svg">
	<g>
		<path d="m143.02699,0c-78.99599,0 -143.02699,64.04 -143.02699,143.02699c0,78.996 64.031,143.02699 143.02699,143.02699c78.987,0 143.02699,-64.03099 143.02699,-143.02699c-0.00897,-78.98699 -64.03998,-143.02699 -143.02699,-143.02699zm0,259.23599c-64.18301,0 -116.209,-52.026 -116.209,-116.209s52.026,-116.19999 116.209,-116.19999c64.17401,0 116.209,52.01699 116.209,116.19999s-52.03499,116.209 -116.209,116.209zm53.80501,-134.08699l-35.936,0l0,-35.757c0,-4.934 -4.00499,-8.939 -8.939,-8.939l-17.87801,0c-4.94299,0 -8.939,4.005 -8.939,8.939l0,35.757l-35.739,0c-4.952,0 -8.957,4.005 -8.957,8.939l0,17.87801c0,4.94299 4.005,8.939 8.957,8.939l35.748,0l0,35.67599c0,4.93401 3.996,8.93001 8.939,8.93001l17.87801,0c4.93399,0 8.939,-3.996 8.939,-8.93001l0,-35.67599l35.936,0c4.952,0 8.957,-3.996 8.957,-8.939l0,-17.87801c-0.009,-4.92599 -4.02301,-8.939 -8.966,-8.939z" 
			  fill="#CDCDCD" 
			  id="svg_2"
			  onmouseover="this.style.fill = '#CDCDCD';"  
			  onmouseout="this.style.fill = '#DCDCDC';"/>
	</g>
</svg>