<svg xmlns="http://www.w3.org/2000/svg"  viewBox="0 0 216 146" x="0px" y="0px" width="30px" height="20px">
	<g fill="#4D4D4D">
		<path d="M165.357,94.102H50.643c-1.413,0-2.635,0.517-3.667,1.549c-1.032,1.031-1.548,2.255-1.548,3.666v20.856
			c0,1.412,0.516,2.634,1.548,3.667c1.033,1.031,2.254,1.547,3.667,1.547h114.714c1.412,0,2.634-0.516,3.666-1.547
			c1.031-1.033,1.547-2.255,1.547-3.667V99.316c0-1.411-0.516-2.635-1.547-3.666C167.991,94.618,166.77,94.102,165.357,94.102z"/>
		<path d="M169.514,80.006l-57.847-57.845c-1.032-1.032-2.253-1.548-3.666-1.548s-2.635,0.516-3.667,1.548L46.488,80.006
			c-1.032,1.033-1.385,1.902-1.059,2.607c0.326,0.707,1.195,1.06,2.607,1.06h119.931c1.412,0,2.281-0.353,2.606-1.06
			C170.898,81.908,170.546,81.039,169.514,80.006z"/>
	</g>
</svg>