<svg xmlns="http://www.w3.org/2000/svg"  viewBox="0 0 216 146" x="0px" y="0px" width="30px" height="20px">
	<path fill="#4D4D4D" d="M 181 114.714 v 10.429 c 0 1.412 -0.516 2.635 -1.548 3.668 c -1.032 1.03 -2.255 1.547 -3.667 1.547 H 40.214 c -1.412 0 -2.634 -0.517 -3.667 -1.547 c -1.032 -1.033 -1.548 -2.256 -1.548 -3.668 v -10.429 c 0 -1.412 0.516 -2.634 1.548 -3.666 c 1.032 -1.032 2.254 -1.548 3.667 -1.548 h 135.571 c 1.412 0 2.635 0.516 3.667 1.548 S 181 113.302 181 114.714 Z M 71.5 78.214 c -1.413 0 -2.635 0.517 -3.667 1.549 c -1.032 1.031 -1.548 2.255 -1.548 3.666 v 10.429 c 0 1.412 0.516 2.636 1.548 3.666 c 1.033 1.032 2.255 1.549 3.667 1.549 h 73 c 1.412 0 2.635 -0.517 3.666 -1.549 c 1.032 -1.03 1.549 -2.254 1.549 -3.666 V 83.429 c 0 -1.411 -0.517 -2.635 -1.549 -3.666 c -1.031 -1.032 -2.254 -1.549 -3.666 -1.549 H 71.5 Z M 50.643 67.787 h 114.714 c 1.412 0 2.634 -0.517 3.666 -1.549 c 1.031 -1.031 1.547 -2.254 1.547 -3.666 V 52.143 c 0 -1.413 -0.516 -2.634 -1.547 -3.666 c -1.032 -1.032 -2.254 -1.548 -3.666 -1.548 H 50.643 c -1.413 0 -2.635 0.516 -3.667 1.548 c -1.032 1.032 -1.548 2.254 -1.548 3.666 v 10.429 c 0 1.412 0.516 2.635 1.548 3.666 C 48.009 67.27 49.23 67.787 50.643 67.787 Z M 81.929 36.5 h 52.141 c 1.412 0 2.635 -0.516 3.668 -1.548 c 1.031 -1.032 1.547 -2.254 1.547 -3.666 V 20.857 c 0 -1.412 -0.516 -2.634 -1.546 -3.667 c -1.033 -1.031 -2.255 -1.548 -3.667 -1.548 H 81.929 c -1.413 0 -2.635 0.517 -3.667 1.548 c -1.032 1.032 -1.548 2.255 -1.548 3.667 v 10.429 c 0 1.412 0.516 2.634 1.548 3.666 C 79.295 35.984 80.517 36.5 81.929 36.5 Z" />
</svg>