<svg xmlns="http://www.w3.org/2000/svg"  viewBox="0 0 216 146" x="0px" y="0px" width="30px" height="20px">
	<g fill="#4D4D4D" >
		<path d="M 40.214 67.787 h 125.144 c 1.412 0 2.634 -0.517 3.666 -1.549 c 1.031 -1.031 1.547 -2.254 1.547 -3.666 V 52.143 c 0 -1.413 -0.516 -2.634 -1.547 -3.666 c -1.032 -1.032 -2.254 -1.548 -3.666 -1.548 H 40.214 c -1.413 0 -2.635 0.516 -3.667 1.548 c -1.032 1.032 -1.548 2.254 -1.548 3.666 v 10.429 c 0 1.412 0.516 2.635 1.548 3.666 C 37.58 67.27 38.802 67.787 40.214 67.787 Z" />
		<path d="M 40.214 36.5 h 93.856 c 1.412 0 2.635 -0.516 3.668 -1.548 c 1.031 -1.032 1.547 -2.254 1.547 -3.666 V 20.857 c 0 -1.412 -0.516 -2.634 -1.547 -3.667 c -1.033 -1.031 -2.256 -1.548 -3.668 -1.548 H 40.214 c -1.413 0 -2.635 0.517 -3.667 1.548 c -1.032 1.032 -1.548 2.255 -1.548 3.667 v 10.429 c 0 1.412 0.516 2.634 1.548 3.666 C 37.58 35.984 38.802 36.5 40.214 36.5 Z" />
		<path d="M 179.452 111.048 c -1.032 -1.032 -2.255 -1.548 -3.667 -1.548 H 40.214 c -1.413 0 -2.635 0.516 -3.667 1.548 c -1.032 1.032 -1.548 2.254 -1.548 3.666 v 10.429 c 0 1.412 0.516 2.635 1.548 3.668 c 1.033 1.03 2.255 1.547 3.667 1.547 h 135.571 c 1.412 0 2.635 -0.517 3.667 -1.547 c 1.032 -1.033 1.548 -2.256 1.548 -3.668 v -10.429 C 181 113.302 180.484 112.08 179.452 111.048 Z" />
		<path d="M 40.214 99.072 H 144.5 c 1.412 0 2.635 -0.517 3.666 -1.549 c 1.032 -1.031 1.549 -2.254 1.549 -3.666 V 83.429 c 0 -1.411 -0.517 -2.635 -1.549 -3.666 c -1.031 -1.032 -2.254 -1.549 -3.666 -1.549 H 40.214 c -1.413 0 -2.635 0.517 -3.667 1.549 c -1.032 1.031 -1.548 2.255 -1.548 3.666 v 10.429 c 0 1.412 0.516 2.635 1.548 3.666 C 37.58 98.556 38.802 99.072 40.214 99.072 Z" />
	</g>
</svg>