<svg xmlns="http://www.w3.org/2000/svg"  viewBox="0 0 216 146" x="0px" y="0px" width="30px" height="20px">
	<g fill="#4D4D4D" >
		<path d="M 175.785 109.5 H 40.214 c -1.413 0 -2.635 0.516 -3.667 1.548 c -1.032 1.032 -1.548 2.254 -1.548 3.666 v 10.429 c 0 1.412 0.516 2.635 1.548 3.668 c 1.033 1.03 2.255 1.547 3.667 1.547 h 135.571 c 1.412 0 2.635 -0.517 3.667 -1.547 c 1.032 -1.033 1.548 -2.256 1.548 -3.668 v -10.429 c 0 -1.412 -0.516 -2.634 -1.548 -3.666 S 177.197 109.5 175.785 109.5 Z" />
		<path d="M 175.785 78.214 H 71.5 c -1.413 0 -2.635 0.517 -3.667 1.549 c -1.032 1.031 -1.548 2.255 -1.548 3.666 v 10.429 c 0 1.412 0.516 2.635 1.548 3.666 c 1.033 1.032 2.255 1.549 3.667 1.549 h 104.285 c 1.412 0 2.635 -0.517 3.667 -1.549 c 1.032 -1.031 1.548 -2.254 1.548 -3.666 V 83.429 c 0 -1.411 -0.516 -2.635 -1.548 -3.666 C 178.42 78.73 177.197 78.214 175.785 78.214 Z" />
		<path d="M 175.785 46.929 H 50.643 c -1.413 0 -2.635 0.516 -3.667 1.548 c -1.032 1.032 -1.548 2.254 -1.548 3.666 v 10.429 c 0 1.412 0.516 2.635 1.548 3.666 c 1.033 1.032 2.254 1.549 3.667 1.549 h 125.142 c 1.412 0 2.635 -0.517 3.667 -1.549 c 1.032 -1.031 1.548 -2.254 1.548 -3.666 V 52.143 c 0 -1.413 -0.516 -2.634 -1.548 -3.666 C 178.42 47.445 177.197 46.929 175.785 46.929 Z" />
		<path d="M 179.452 17.19 c -1.032 -1.031 -2.255 -1.548 -3.667 -1.548 H 81.929 c -1.413 0 -2.635 0.517 -3.667 1.548 c -1.032 1.032 -1.548 2.255 -1.548 3.667 v 10.429 c 0 1.412 0.516 2.634 1.548 3.666 c 1.033 1.032 2.255 1.548 3.667 1.548 h 93.856 c 1.412 0 2.635 -0.516 3.667 -1.548 c 1.032 -1.032 1.548 -2.254 1.548 -3.666 V 20.857 C 181 19.445 180.484 18.223 179.452 17.19 Z" />
	</g>
</svg>