<svg xmlns="http://www.w3.org/2000/svg"  viewBox="0 0 216 146" x="0px" y="0px" width="30px" height="20px">
	<g fill="#363636">
		<path d="M 164.623 32.019 c -0.488 -0.488 -1.113 -0.733 -1.873 -0.733 h -25.176 l -5.703 -13.605 c -0.814 -2.01 -2.28 -3.721 -4.398 -5.133 c -2.119 -1.412 -4.265 -2.118 -6.438 -2.118 H 94.964 c -2.172 0 -4.318 0.706 -6.436 2.118 c -2.119 1.412 -3.585 3.123 -4.4 5.133 l -5.703 13.605 H 53.25 c -0.761 0 -1.385 0.245 -1.874 0.733 c -0.488 0.489 -0.733 1.114 -0.733 1.874 v 5.215 c 0 0.76 0.244 1.385 0.733 1.873 c 0.489 0.489 1.114 0.733 1.874 0.733 h 7.821 v 77.562 c 0 4.509 1.276 8.352 3.829 11.528 c 2.553 3.179 5.622 4.767 9.207 4.767 h 67.786 c 3.586 0 6.654 -1.643 9.207 -4.928 c 2.553 -3.287 3.828 -7.184 3.828 -11.691 V 41.714 h 7.822 c 0.76 0 1.385 -0.244 1.873 -0.733 c 0.488 -0.488 0.734 -1.113 0.734 -1.873 v -5.215 C 165.357 33.133 165.111 32.508 164.623 32.019 Z M 93.742 21.753 c 0.38 -0.489 0.842 -0.788 1.385 -0.896 h 25.827 c 0.543 0.109 1.005 0.408 1.385 0.896 l 3.911 9.532 h -36.5 L 93.742 21.753 Z M 144.5 118.951 c 0 1.195 -0.189 2.295 -0.57 3.299 c -0.381 1.005 -0.775 1.738 -1.182 2.2 c -0.407 0.462 -0.691 0.692 -0.855 0.692 H 74.107 c -0.163 0 -0.447 -0.23 -0.855 -0.692 s -0.802 -1.195 -1.182 -2.2 c -0.38 -1.004 -0.57 -2.105 -0.57 -3.299 V 41.714 h 73 V 118.951 Z" />
		<path d="M 84.536 109.5 h 5.214 c 0.761 0 1.386 -0.244 1.874 -0.732 c 0.488 -0.49 0.733 -1.113 0.733 -1.875 V 59.964 c 0 -0.76 -0.245 -1.385 -0.733 -1.874 c -0.489 -0.488 -1.113 -0.732 -1.874 -0.732 h -5.214 c -0.761 0 -1.385 0.244 -1.874 0.732 c -0.488 0.489 -0.733 1.114 -0.733 1.874 v 46.929 c 0 0.762 0.244 1.385 0.733 1.875 C 83.151 109.256 83.775 109.5 84.536 109.5 Z" />
		<path d="M 105.393 109.5 h 5.214 c 0.761 0 1.386 -0.244 1.873 -0.732 c 0.49 -0.49 0.733 -1.113 0.733 -1.875 V 59.964 c 0 -0.76 -0.243 -1.385 -0.733 -1.874 c -0.487 -0.488 -1.112 -0.732 -1.873 -0.732 h -5.214 c -0.76 0 -1.385 0.244 -1.874 0.732 c -0.489 0.489 -0.733 1.114 -0.733 1.874 v 46.929 c 0 0.762 0.244 1.385 0.733 1.875 C 104.008 109.256 104.633 109.5 105.393 109.5 Z" />
		<path d="M 126.25 109.5 h 5.214 c 0.761 0 1.386 -0.244 1.874 -0.732 c 0.488 -0.49 0.732 -1.113 0.732 -1.875 V 59.964 c 0 -0.76 -0.244 -1.385 -0.732 -1.874 c -0.488 -0.488 -1.113 -0.732 -1.874 -0.732 h -5.214 c -0.761 0 -1.385 0.244 -1.874 0.732 c -0.489 0.489 -0.733 1.114 -0.733 1.874 v 46.929 c 0 0.762 0.244 1.385 0.733 1.875 C 124.865 109.256 125.489 109.5 126.25 109.5 Z" />
	</g>
</svg>