<svg xmlns="http://www.w3.org/2000/svg"  viewBox="0 0 216 146" x="0px" y="0px" width="30px" height="20px">
	<g fill="#4D4D4D" >
		<path d="M 37.608 99.071 c 0.761 0 1.385 -0.244 1.874 -0.733 l 23.464 -23.464 c 0.488 -0.489 0.733 -1.113 0.733 -1.874 s -0.245 -1.385 -0.733 -1.874 L 39.482 47.662 c -0.489 -0.489 -1.113 -0.733 -1.874 -0.733 c -0.706 0 -1.317 0.257 -1.833 0.773 c -0.516 0.517 -0.774 1.128 -0.774 1.834 v 46.928 c 0 0.707 0.258 1.317 0.774 1.834 C 36.291 98.812 36.902 99.071 37.608 99.071 Z" />
		<path d="M 178.393 109.5 H 37.607 c -0.706 0 -1.317 0.257 -1.833 0.773 S 35 111.4 35 112.107 v 15.643 c 0 0.706 0.258 1.316 0.774 1.833 s 1.127 0.774 1.833 0.774 h 140.786 c 0.707 0 1.317 -0.258 1.834 -0.774 c 0.516 -0.517 0.773 -1.127 0.773 -1.833 v -15.643 c 0 -0.707 -0.258 -1.317 -0.773 -1.834 C 179.71 109.758 179.1 109.5 178.393 109.5 Z" />
		<path d="M 178.393 78.214 H 89.75 c -0.706 0 -1.317 0.259 -1.833 0.774 s -0.774 1.127 -0.774 1.833 v 15.643 c 0 0.707 0.258 1.317 0.774 1.834 c 0.516 0.515 1.127 0.772 1.833 0.772 h 88.643 c 0.707 0 1.317 -0.256 1.834 -0.772 c 0.516 -0.517 0.773 -1.127 0.773 -1.834 V 80.821 c 0 -0.706 -0.258 -1.317 -0.773 -1.833 C 179.71 78.473 179.1 78.214 178.393 78.214 Z" />
		<path d="M 178.393 46.929 H 89.75 c -0.706 0 -1.317 0.257 -1.833 0.773 c -0.516 0.517 -0.774 1.128 -0.774 1.834 v 15.643 c 0 0.706 0.258 1.317 0.774 1.833 c 0.516 0.515 1.127 0.774 1.833 0.774 h 88.643 c 0.707 0 1.317 -0.258 1.834 -0.774 c 0.516 -0.516 0.773 -1.127 0.773 -1.833 V 49.536 c 0 -0.706 -0.258 -1.317 -0.773 -1.834 C 179.71 47.187 179.1 46.929 178.393 46.929 Z" />
		<path d="M 180.227 16.417 c -0.517 -0.515 -1.127 -0.774 -1.834 -0.774 H 37.607 c -0.706 0 -1.317 0.258 -1.833 0.774 S 35 17.544 35 18.25 v 15.643 c 0 0.706 0.258 1.317 0.774 1.833 s 1.127 0.774 1.833 0.774 h 140.786 c 0.707 0 1.317 -0.257 1.834 -0.774 c 0.516 -0.516 0.773 -1.127 0.773 -1.833 V 18.25 C 181 17.544 180.742 16.933 180.227 16.417 Z" />
	</g>
</svg>