<svg xmlns="http://www.w3.org/2000/svg"  viewBox="0 0 216 146" x="0px" y="0px" width="30px" height="20px">
	<path fill="#4D4D4D" d="M 167.637 87.665 l -16.947 -16.946 c -4.562 -4.562 -10.101 -6.844 -16.619 -6.844 c -6.627 0 -12.274 2.39 -16.946 7.17 l -7.17 -7.17 c 4.78 -4.671 7.17 -10.346 7.17 -17.028 c 0 -6.518 -2.254 -12.03 -6.763 -16.539 L 93.578 13.444 C 89.07 8.827 83.53 6.518 76.958 6.518 c -6.518 0 -12.031 2.255 -16.539 6.763 L 48.442 25.176 c -4.617 4.509 -6.925 10.021 -6.925 16.539 c 0 6.518 2.282 12.059 6.844 16.621 l 16.946 16.946 c 4.563 4.562 10.103 6.844 16.621 6.844 c 6.626 0 12.275 -2.39 16.946 -7.17 l 7.17 7.17 c -4.78 4.671 -7.17 10.346 -7.17 17.028 c 0 6.518 2.254 12.029 6.762 16.539 l 16.785 16.863 c 4.509 4.617 10.047 6.926 16.619 6.926 c 6.519 0 12.03 -2.254 16.539 -6.763 l 11.978 -11.895 c 4.616 -4.509 6.926 -10.021 6.926 -16.539 C 174.482 97.768 172.201 92.229 167.637 87.665 Z M 98.875 52.797 c -0.163 -0.163 -0.666 -0.679 -1.507 -1.548 c -0.841 -0.869 -1.425 -1.453 -1.751 -1.752 c -0.326 -0.299 -0.842 -0.706 -1.548 -1.223 c -0.707 -0.516 -1.399 -0.869 -2.078 -1.059 c -0.679 -0.19 -1.426 -0.285 -2.241 -0.285 c -2.172 0 -4.019 0.761 -5.54 2.281 s -2.281 3.367 -2.281 5.54 c 0 0.814 0.095 1.561 0.285 2.24 c 0.19 0.68 0.543 1.372 1.059 2.078 c 0.516 0.706 0.924 1.222 1.222 1.548 c 0.298 0.326 0.882 0.91 1.751 1.752 s 1.385 1.344 1.548 1.507 c -1.63 1.683 -3.585 2.525 -5.866 2.525 c -2.227 0 -4.074 -0.733 -5.54 -2.199 L 59.441 47.256 c -1.52 -1.521 -2.281 -3.368 -2.281 -5.541 c 0 -2.118 0.76 -3.937 2.281 -5.458 l 11.977 -11.896 c 1.576 -1.467 3.422 -2.199 5.541 -2.199 c 2.172 0 4.019 0.76 5.54 2.281 l 16.783 16.864 c 1.521 1.521 2.281 3.368 2.281 5.54 C 101.563 49.128 100.667 51.111 98.875 52.797 Z M 156.561 109.742 l -11.978 11.896 c -1.521 1.412 -3.367 2.118 -5.541 2.118 c -2.228 0 -4.072 -0.732 -5.539 -2.199 l -16.783 -16.865 c -1.521 -1.521 -2.28 -3.367 -2.28 -5.539 c 0 -2.281 0.895 -4.264 2.688 -5.948 c 0.164 0.163 0.666 0.68 1.508 1.548 c 0.842 0.869 1.426 1.453 1.752 1.752 s 0.842 0.706 1.547 1.223 c 0.707 0.517 1.398 0.87 2.078 1.06 c 0.68 0.19 1.426 0.284 2.24 0.284 c 2.174 0 4.02 -0.76 5.541 -2.28 c 1.52 -1.521 2.281 -3.367 2.281 -5.54 c 0 -0.814 -0.096 -1.561 -0.285 -2.24 c -0.191 -0.679 -0.543 -1.372 -1.061 -2.078 c -0.517 -0.705 -0.922 -1.222 -1.222 -1.548 c -0.299 -0.325 -0.883 -0.909 -1.752 -1.752 c -0.869 -0.842 -1.385 -1.344 -1.549 -1.507 c 1.631 -1.738 3.586 -2.607 5.866 -2.607 c 2.173 0 4.02 0.76 5.539 2.281 l 16.947 16.946 c 1.521 1.521 2.281 3.368 2.281 5.541 C 158.84 106.404 158.08 108.225 156.561 109.742 Z" />
</svg>