<svg xmlns="http://www.w3.org/2000/svg" id="Capa_1" x="0px" y="0px" width="30px" height="20px" viewBox="0 0 216 146">
	<g fill="#4D4D4D" >
		<path d="M175.785,99.071H40.214c-1.413,0-2.635,0.517-3.667,1.548c-1.032,1.031-1.548,2.255-1.548,3.667v20.856
				 c0,1.411,0.516,2.635,1.548,3.666c1.033,1.031,2.255,1.549,3.667,1.549h135.571c1.412,0,2.635-0.518,3.667-1.549
				 s1.548-2.255,1.548-3.666v-20.856c0-1.412-0.516-2.636-1.548-3.667S177.197,99.071,175.785,99.071z M170.572,119.929H118.43V109.5
				 h52.143V119.929z"/>
		<path d="M175.785,57.357H40.214c-1.413,0-2.635,0.516-3.667,1.548c-1.032,1.032-1.548,2.254-1.548,3.666v20.856
				 c0,1.412,0.516,2.635,1.548,3.666c1.033,1.032,2.255,1.549,3.667,1.549h135.571c1.412,0,2.635-0.517,3.667-1.549
				 c1.032-1.031,1.548-2.254,1.548-3.666V62.571c0-1.412-0.516-2.634-1.548-3.666C178.42,57.873,177.197,57.357,175.785,57.357z
				 M170.57,78.214H87.143V67.786h83.427V78.214z"/>
		<path d="M179.452,17.19c-1.032-1.031-2.255-1.548-3.667-1.548H40.214c-1.413,0-2.635,0.517-3.667,1.548
				 c-1.032,1.032-1.548,2.255-1.548,3.667v20.856c0,1.413,0.516,2.635,1.548,3.667c1.033,1.032,2.255,1.548,3.667,1.548h135.571
				 c1.412,0,2.635-0.516,3.667-1.548c1.032-1.032,1.548-2.254,1.548-3.667V20.857C181,19.445,180.484,18.223,179.452,17.19z
				 M170.57,36.5h-31.285V26.071h31.285V36.5z"/>
	</g>
</svg>